<?xml version="1.0" encoding="utf-8"?><svg viewBox="0 0 44 37" xmlns="http://www.w3.org/2000/svg" xmlns:xlink="http://www.w3.org/1999/xlink"><style>:root>svg{display:none}:root>svg:target{display:block}</style><svg viewBox="0 0 40.094 32.97" id="css--Diamond" xmlns="http://www.w3.org/2000/svg"><defs><linearGradient id="aa" x1="807.562" y1="1058.03" x2="840.532" y2="1091" gradientUnits="userSpaceOnUse"><stop offset="0" stop-color="#fff"/><stop offset="1" stop-color="#fff"/></linearGradient><filter id="ab" x="804" y="1058.03" width="40.094" height="32.97" filterUnits="userSpaceOnUse"><feFlood result="flood" flood-color="#ff3b4a"/><feComposite result="composite" operator="in" in2="SourceGraphic"/><feBlend result="blend" in2="SourceGraphic"/></filter></defs><path d="M844.081 1068.45a.3.3 0 00-.031-.08.718.718 0 00-.024-.21l-4.119-9.69a.722.722 0 00-.669-.44h-30.4a.719.719 0 00-.669.44l-4.122 9.69a.8.8 0 00-.026.21.387.387 0 00-.029.08.163.163 0 01.016.04.686.686 0 00.163.43l19.32 21.83c.015.02.044.02.06.04.053.04.1.08.158.12a.207.207 0 00.034.03.736.736 0 00.582 0 .091.091 0 00.034-.04.778.778 0 00.156-.11c.018-.02.047-.02.063-.04l19.32-21.83a.688.688 0 00.165-.43.163.163 0 01.018-.04zm-15.116-8.98l3.553 8.26h-16.961l3.556-8.26h9.852zm3.543 9.7l-8.473 19.3-8.468-19.3h16.941zm-18.525 0l7.53 17.17-15.192-17.17h7.662zm20.109 0h7.66l-15.193 17.17zm8.173-1.44H834.1l-3.553-8.26h8.214zm-32.946-8.26h8.22l-3.556 8.26h-8.173z" transform="translate(-804 -1058.03)" fill-rule="evenodd" fill="url(#aa)" filter="url(#ab)"/></svg><svg viewBox="0 0 39.25 37" id="css--Pencil" xmlns="http://www.w3.org/2000/svg"><defs><linearGradient id="ba" x1="1127.625" y1="796.156" x2="1164.625" y2="833.156" gradientUnits="userSpaceOnUse"><stop offset="0" stop-color="#fff"/><stop offset="1" stop-color="#fff"/></linearGradient><filter id="bb" x="1126.5" y="796.156" width="39.25" height="37" filterUnits="userSpaceOnUse"><feFlood result="flood" flood-color="#ff3b4a"/><feComposite result="composite" operator="in" in2="SourceGraphic"/><feBlend result="blend" in2="SourceGraphic"/></filter></defs><path d="M1165.7 809.067a23.117 23.117 0 00-11.72-12.829.842.842 0 00-.93.139l-17.49 15.962-2.01 1.843a.886.886 0 00-.27.345.23.23 0 01-.02.073l-4.71 12.21-2 5.216a.829.829 0 00.16.863.84.84 0 00.62.269.808.808 0 00.23-.033l5.38-1.524 12.65-3.587a1.188 1.188 0 00.23-.1c.04-.028.07-.058.11-.088l2.07-1.885 17.48-15.963a.836.836 0 00.22-.911zm-35.92 19.206a.562.562 0 00.11.052 4.158 4.158 0 011.65 1.809.461.461 0 01.04.113l-2.87.818zm15.17-1.814l-11.72 3.321c-.03-.072-.09-.127-.12-.2a5.468 5.468 0 00-2.53-2.766c-.07-.041-.12-.1-.18-.14l4.37-11.351 1.31-1.189 1.06 1.156 9.11 9.975zm2.53-2.318l-2.64-2.9 13.9-12.683a.843.843 0 00.27-.622.816.816 0 00-.22-.56.838.838 0 00-1.18-.053l-13.9 12.685-.54-.6-2.09-2.284 13.9-12.683a.843.843 0 00.27-.622.818.818 0 00-.22-.56.839.839 0 00-1.18-.052l-13.9 12.686-2.64-2.894 16.45-15.012a21.412 21.412 0 0110.17 11.135z" transform="translate(-1126.5 -796.156)" fill-rule="evenodd" fill="url(#ba)" filter="url(#bb)"/></svg><svg viewBox="0 0 44 33" id="css--Truck_2" xmlns="http://www.w3.org/2000/svg"><defs><linearGradient id="ca" x1="1129.5" y1="1057" x2="1162.5" y2="1090" gradientUnits="userSpaceOnUse"><stop offset="0" stop-color="#fff"/><stop offset="1" stop-color="#fff"/></linearGradient><filter id="cb" x="1124" y="1057" width="44" height="33" filterUnits="userSpaceOnUse"><feFlood result="flood" flood-color="#ff3b4a"/><feComposite result="composite" operator="in" in2="SourceGraphic"/><feBlend result="blend" in2="SourceGraphic"/></filter></defs><path data-name="Truck 2" d="M1167.95 1073.45v-10.41a.783.783 0 00-.79-.78h-15.04v-4.49a.773.773 0 00-.78-.77h-26.54a.775.775 0 00-.79.77v26.2a.783.783 0 00.79.78h2.66a.78.78 0 100-1.56h-1.88v-24.64h24.97v19.59a.785.785 0 001.57 0v-14.32h6.34v9.72a.79.79 0 00.79.78h7.13v8.87h-1.85a.78.78 0 100 1.56h2.63a.783.783 0 00.79-.78v-10.34a.631.631 0 00.04-.09.247.247 0 00-.04-.09zm-1.57-.69h-6.34v-8.94h6.34v8.94zm-9.78 5.19a6.02 6.02 0 106.08 6.02 6.061 6.061 0 00-6.08-6.02zm0 10.48a4.46 4.46 0 114.51-4.46 4.488 4.488 0 01-4.51 4.46zm-21.2-10.48a6.02 6.02 0 106.09 6.02 6.061 6.061 0 00-6.09-6.02zm0 10.48a4.46 4.46 0 114.51-4.46 4.5 4.5 0 01-4.51 4.46zm13.27-5.24h-5.34a.78.78 0 100 1.56h5.34a.78.78 0 000-1.56z" transform="translate(-1124 -1057)" fill-rule="evenodd" fill="url(#ca)" filter="url(#cb)"/></svg></svg>